<svg style="fill-rule:evenodd;clip-rule:evenodd;stroke-linejoin:round;stroke-miterlimit:2;" xml:space="preserve" xmlns:xlink="http://www.w3.org/1999/xlink" xmlns="http://www.w3.org/2000/svg" version="1.1" viewBox="0 0 500 135" height="100%" width="100%"><g><g id="Layer_2"><g><path style="fill:#0b0b0b;fill-rule:nonzero;" d="M80,31.4c0.2,5.9 0.3,11.4 0.3,18.2l0,41.1l-7.4,0l0,-68.6l11,0l23.1,43.5c2.6,5 5.5,10.4 7.9,15.5l0.7,0c-0.2,-6.3 -0.2,-12.6 -0.2,-18.4l0,-40.5l7.3,0l0,68.6l-10.8,0l-23.3,-43.7c-2.7,-5.1 -5.3,-10.3 -7.8,-15.6l-0.8,0l0,-0.1Z"></path><path style="fill:#0b0b0b;fill-rule:nonzero;" d="M165,53.2l0.5,37.3l-5.2,0c0,0 -0.7,-4.1 -1.2,-5.5l-0.4,0c-2,2.7 -6.2,6.8 -15.9,7.1c-9.9,0.3 -15.4,-6.9 -15.4,-14.2c0,-11.7 11.5,-17.5 30.4,-17.2l0,-5.8c0,-8.7 -4.2,-11.3 -11.3,-11.3c-7.1,0 -10.6,3.9 -12.1,6.5l-5.6,-4.4c1.9,-2.5 6.8,-8.7 17.9,-8.7c11.1,0 18.1,5 18.1,16.1m-6.8,13.6c-12.8,-0.5 -22.9,2.6 -22.9,10.7c0,8.1 3.4,8.5 9.6,8.5c6.2,0 10.9,-3.6 13.3,-7.2l0,-12Z"></path><path style="fill:#0b0b0b;fill-rule:nonzero;" d="M176.1,76.6l0,-32.9l-7.9,0l0,-4.9l7.9,-1.5l2.3,-13.8l5.2,0l0,14l14.7,0l0,6.2l-14.7,0l0,32.5c0,6 3,8.4 7.7,8.4c4.7,0 6.8,-1 8.1,-1.9l2.2,6.1c-2.1,1.2 -5.6,2.4 -11.9,2.4c-6.3,0 -13.6,-4.6 -13.6,-14.7"></path><path style="fill:#0b0b0b;fill-rule:nonzero;" d="M201.4,39.2l7.8,0l0,34.8c0,8.7 3.7,12.9 11.6,12.9c7.9,0 13.2,-4.4 13.4,-12.8l0,-34.9l7.6,0l0,53.2l-6,0l-1.5,-5.6l-0.4,0c-1.5,2.1 -6.3,6.7 -15.2,6.7c-8.9,0 -17,-5.8 -17.3,-17.9l0,-36.4Z"></path><path style="fill:#0b0b0b;fill-rule:nonzero;" d="M275.8,46c-2,-0.6 -4,-0.8 -6,-0.8c-5.2,0 -10.6,2.1 -13.1,6.8l0,39.6l-7.5,0l0,-53.2l5.8,0l1.7,5.9l0.4,0c2.3,-3.8 7.2,-6.8 13.4,-6.8c6.2,0 4.2,0.2 5.4,0.5l0,7.9l-0.1,0.1Z"></path><rect style="fill:#0b0b0b;" height="75.4" width="7.5" y="16.4" x="317.7"></rect><path style="fill:#0b0b0b;fill-rule:nonzero;" d="M364.1,73.2c0,-15.6 -32.7,-12 -32.7,-33.7c0,-21.7 8.9,-18.4 21.2,-18.4c12.3,0 13.8,2.5 17.7,5.8l-4.8,6.1c-3.4,-2.7 -7.6,-4.7 -13.4,-4.7c-5.8,0 -12.8,4.5 -12.8,10.8c0,15.9 32.7,12.5 32.7,33.7c0,21.2 -8.2,19 -22.9,19c-14.7,0 -17.5,-3.7 -21.4,-7.2l4.6,-6.3c3.8,3.1 9.3,6.5 17.5,6.5c8.2,0 14.3,-5.1 14.3,-11.4"></path><rect style="fill:#0b0b0b;" height="75.4" width="7.5" y="16.4" x="377.1"></rect><path style="fill:#0b0b0b;fill-rule:nonzero;" d="M394.3,16.3c3.2,0 5.7,2.3 5.7,5.6c0,3.3 -2.4,5.5 -5.7,5.5c-3.3,0 -5.5,-2.3 -5.5,-5.5c0,-3.2 2.4,-5.6 5.5,-5.6m-3.4,21.2l7.6,0l0,53.2l-7.6,0l0,-53.2Z"></path><path style="fill:#0b0b0b;fill-rule:nonzero;" d="M457.8,36.4c10.6,0 16.4,6 16.4,17.6l0,36.7l-7.5,0l0,-35.1c0,-8.2 -3.9,-12.4 -10.5,-12.4c-6.6,0 -10.9,4.6 -12.2,8.9l0,38.7l-7.6,0l0,-34.5c0,-8.4 -3.7,-13 -10.6,-13c-6.9,0 -11,4.9 -12,9.5l0,38.1l-7.6,0l0,-53.2l5.9,0l1.6,5.7l0.4,0c1.5,-2.3 5.5,-6.8 13.8,-6.8c8.3,0 12.1,3.6 14.1,8.4l0.4,0c2.1,-4.3 7.2,-8.4 15.6,-8.4"></path><path style="fill:#0b0b0b;fill-rule:nonzero;" d="M310.9,54.6l0.5,35.6l-4.9,0c0,0 -0.7,-3.9 -1.2,-5.2l-0.4,0c-2,2.6 -5.9,6.5 -15.2,6.8c-9.4,0.3 -14.7,-6.6 -14.7,-13.6c0,-11.2 11,-16.7 29.1,-16.5l0,-5.5c0,-8.3 -4,-10.8 -10.8,-10.8c-6.8,0 -10.1,3.7 -11.6,6.2l-5.3,-4.2c1.8,-2.4 6.5,-8.3 17.1,-8.3c10.6,0 17.3,4.8 17.3,15.4m-6.6,13c-12.3,-0.5 -21.9,2.5 -21.9,10.2c0,7.7 3.3,8.1 9.2,8.1c5.9,0 10.4,-3.5 12.7,-6.9l0,-11.4Z"></path></g><g><path style="fill:#1fa454;fill-rule:nonzero;" d="M40.8,23.4c-7.7,0 -24.9,-21 -38.1,-21c-12.9,0 34.3,6.9 34.3,45.4c0,21.9 -12.4,45.4 -15.9,47.6c-3.4,2.1 -14.1,1.3 -10.7,3.9l13.3,0c1.8,0 3.4,-1.1 4.1,-2.8l12.2,-31.2c0.3,-0.7 1.3,-0.7 1.6,0l12.3,31.2c0.7,1.7 2.3,2.8 4.1,2.8l13.3,0c3.4,-2.6 -7.3,-1.7 -10.7,-3.9c-3.4,-2.1 -15.9,-25.7 -15.9,-47.6c0,-38.6 47.1,-45.4 34.3,-45.4c-12.8,0 -30.4,21 -38.1,21l-0.1,0Z"></path><path style="fill:#1fa454;fill-rule:nonzero;" d="M42.9,4.5c-8.1,0 -9.9,13.3 -2.6,13.3c7.3,0 10.7,-13.3 2.6,-13.3Z"></path></g><g><path style="fill-rule:nonzero;" d="M370.4,120.4c-0.2,-3.9 -0.4,-8.7 -0.4,-12.1c-1,3.2 -2,6.8 -3.4,10.7l-4.7,13.6l-2.6,0l-4.4,-13.4c-1.3,-4 -2.3,-7.6 -3.1,-10.9c0,3.5 -0.3,8.2 -0.5,12.4l-0.7,12l-3.3,0l1.9,-28l4.4,0l4.6,13.6c1.1,3.5 2,6.5 2.7,9.4c0.7,-2.8 1.7,-5.9 2.9,-9.4l4.8,-13.6l4.4,0l1.7,28l-3.4,0l-0.6,-12.3l-0.3,-0Z"></path><path style="fill-rule:nonzero;" d="M383.9,123.3c0,5 3.1,7 6.6,7c3.5,0 4.1,-0.5 5.3,-1l0.6,2.6c-1.2,0.6 -3.4,1.3 -6.4,1.3c-5.9,0 -9.5,-4.1 -9.5,-10.2c0,-6.1 3.4,-10.8 9,-10.8c5.6,0 7.9,5.7 7.9,9.4c0,3.7 0,1.3 -0.1,1.7l-13.5,0l0.1,0Zm10.2,-2.7c0,-2.3 -0.9,-5.9 -4.8,-5.9c-3.9,0 -5.1,3.4 -5.4,5.9l10.2,0Zm0.8,-16.8l-4.8,6l-2.5,0l3.5,-6l3.8,0Z"></path><path style="fill-rule:nonzero;" d="M405.4,112.5l2.7,4.3c0.8,1.1 1.4,2.1 2,3.2c0.6,-1.2 1.3,-2.2 1.9,-3.3l2.7,-4.3l3.8,0l-6.6,9.7l6.7,10.4l-3.9,0l-2.9,-4.5c-0.8,-1.2 -1.4,-2.3 -2.1,-3.5c-0.6,1.2 -1.3,2.3 -2,3.5l-2.8,4.5l-3.9,0l6.8,-10.3l-6.5,-9.9l3.9,0l0.2,0.2Z"></path><path style="fill-rule:nonzero;" d="M428.2,106.9c0,1.2 -0.8,2.2 -2.2,2.2c-1.4,0 -2.1,-1 -2.1,-2.2c0,-1.2 0.9,-2.3 2.2,-2.3c1.3,0 2.1,1 2.1,2.3Zm-3.9,25.8l0,-20.1l3.5,0l0,20.1l-3.5,0Z"></path><path style="fill-rule:nonzero;" d="M449.3,132c-0.9,0.5 -2.9,1.2 -5.5,1.2c-5.8,0 -9.6,-4.1 -9.6,-10.3c0,-6.2 4.1,-10.7 10.3,-10.7c6.2,0 3.9,0.5 4.8,1.1l-0.8,2.8c-0.8,-0.5 -2.1,-1 -4.1,-1c-4.4,0 -6.8,3.5 -6.8,7.6c0,4.1 2.9,7.5 6.7,7.5c3.8,0 3.3,-0.5 4.3,-1l0.6,2.7l0.1,0.1Z"></path><path style="fill-rule:nonzero;" d="M472.7,122.4c0,7.4 -5,10.7 -9.6,10.7c-4.6,0 -9.2,-4 -9.2,-10.4c0,-6.4 4.3,-10.7 9.5,-10.7c5.2,0 9.3,4.2 9.3,10.3l0,0.1Zm-15.3,0.2c0,4.4 2.4,7.7 5.8,7.7c3.4,0 5.8,-3.3 5.8,-7.8c0,-4.5 -1.6,-7.7 -5.8,-7.7c-4.2,0 -5.9,4 -5.9,7.8l0.1,0Z"></path></g><path style="fill-rule:nonzero;" d="M485.2,16.3c2.2,0 4.4,0.6 6.5,1.7c2.1,1.1 3.8,2.8 5,4.9c1.2,2.1 1.8,4.4 1.8,6.7c0,2.3 -0.6,4.5 -1.7,6.6c-1.2,2.1 -2.8,3.8 -4.9,4.9c-2.1,1.2 -4.3,1.8 -6.6,1.8c-2.3,0 -4.5,-0.6 -6.6,-1.8c-2.1,-1.2 -3.7,-2.8 -4.9,-4.9c-1.2,-2.1 -1.8,-4.3 -1.8,-6.6c0,-2.3 0.6,-4.6 1.8,-6.7c1.2,-2.1 2.8,-3.8 5,-4.9c2.1,-1.1 4.3,-1.7 6.5,-1.7l-0.1,0Zm0,2.3c-1.9,0 -3.7,0.5 -5.4,1.4c-1.8,1 -3.1,2.3 -4.1,4.1c-1,1.8 -1.5,3.6 -1.5,5.6c0,2 0.5,3.8 1.5,5.5c1,1.7 2.3,3.1 4.1,4.1c1.8,1 3.6,1.5 5.5,1.5c1.9,0 3.7,-0.5 5.5,-1.5c1.8,-1 3.1,-2.4 4.1,-4.1c1,-1.7 1.5,-3.6 1.5,-5.5c0,-1.9 -0.5,-3.8 -1.5,-5.6c-1,-1.8 -2.4,-3.2 -4.1,-4.1c-1.7,-0.9 -3.6,-1.4 -5.4,-1.4l-0.2,0Zm-5.8,18.5l0,-14.4l4.9,0c1.7,0 2.9,0.1 3.6,0.4c0.8,0.3 1.3,0.7 1.8,1.4c0.4,0.7 0.7,1.4 0.7,2.1c0,0.7 -0.4,2 -1.1,2.7c-0.7,0.8 -1.7,1.2 -3,1.3c0.5,0.2 0.9,0.5 1.2,0.8c0.6,0.6 1.3,1.5 2.1,2.8l1.7,2.8l-2.8,0l-1.3,-2.3c-1,-1.8 -1.8,-2.9 -2.4,-3.3c-0.4,-0.3 -1,-0.5 -1.8,-0.5l-1.4,0l0,6.1l-2.3,0l0.1,0.1Zm2.2,-8.1l2.9,-0c1.3,0 2.2,-0.2 2.7,-0.6c0.5,-0.4 0.7,-0.9 0.7,-1.6c0,-0.7 -0.1,-0.8 -0.4,-1.1c-0.2,-0.3 -0.6,-0.6 -1,-0.8c-0.4,-0.2 -1.2,-0.2 -2.3,-0.2l-2.6,0l0,4.3Z"></path></g></g></svg>